<?xml version="1.0" encoding="utf-8"?>
<!-- Generator: Adobe Illustrator 24.0.2, SVG Export Plug-In . SVG Version: 6.00 Build 0)  -->
<svg version="1.1" id="Capa_1" xmlns="http://www.w3.org/2000/svg" xmlns:xlink="http://www.w3.org/1999/xlink" x="0px" y="0px"
	 viewBox="0 0 400 400" style="enable-background:new 0 0 400 400;" xml:space="preserve">
<style type="text/css">
	.st0{fill:#C36B84;}
</style>
<g>
	<g>
		<path class="st0" d="M275.45,111.99c-1.44,1.41-2.89,2.83-4.33,4.24c-3.93,3.85-7.86,7.69-11.79,11.54
			c-5.82,5.69-11.63,11.38-17.45,17.07c-7.1,6.94-14.19,13.89-21.29,20.83c-7.8,7.64-15.61,15.27-23.41,22.91
			c-7.85,7.68-15.7,15.36-23.54,23.04c-7.32,7.16-14.63,14.32-21.95,21.48c-6.18,6.05-12.37,12.1-18.55,18.15
			c-4.45,4.35-8.89,8.7-13.34,13.06c-2.11,2.06-4.24,4.1-6.32,6.19c-0.09,0.09-0.18,0.18-0.27,0.27c-3.08,3.02-3.25,8.66,0,11.65
			c3.32,3.04,8.35,3.22,11.65,0c1.44-1.41,2.89-2.83,4.33-4.24c3.93-3.85,7.86-7.69,11.79-11.54c5.81-5.69,11.63-11.38,17.44-17.07
			c7.1-6.94,14.19-13.89,21.29-20.83c7.8-7.64,15.61-15.27,23.41-22.91c7.85-7.68,15.7-15.36,23.54-23.04
			c7.32-7.16,14.63-14.32,21.95-21.48c6.18-6.05,12.37-12.1,18.55-18.15c4.45-4.35,8.89-8.7,13.34-13.06
			c2.11-2.06,4.24-4.1,6.32-6.19c0.09-0.09,0.18-0.18,0.27-0.27c3.08-3.02,3.25-8.66,0-11.65
			C283.78,108.95,278.74,108.77,275.45,111.99L275.45,111.99z"/>
	</g>
</g>
<g>
	<g>
		<path class="st0" d="M127.54,121.18c1.4,1.46,2.8,2.91,4.2,4.37c3.81,3.97,7.62,7.93,11.43,11.9c5.64,5.87,11.27,11.73,16.91,17.6
			c6.88,7.16,13.76,14.32,20.64,21.47c7.57,7.87,15.13,15.74,22.7,23.62c7.61,7.92,15.22,15.83,22.82,23.75
			c7.09,7.38,14.19,14.76,21.28,22.14c5.99,6.24,11.99,12.48,17.98,18.71c4.31,4.49,8.62,8.97,12.93,13.46
			c2.04,2.13,4.06,4.28,6.13,6.38c0.09,0.09,0.18,0.18,0.26,0.27c2.99,3.11,8.68,3.23,11.65,0c3.07-3.34,3.19-8.33,0-11.65
			c-1.4-1.46-2.8-2.91-4.2-4.37c-3.81-3.97-7.62-7.93-11.43-11.9c-5.64-5.87-11.27-11.73-16.91-17.6
			c-6.88-7.16-13.76-14.32-20.64-21.47c-7.57-7.87-15.13-15.74-22.7-23.62c-7.61-7.92-15.22-15.83-22.82-23.75
			c-7.09-7.38-14.19-14.76-21.28-22.14c-5.99-6.24-11.99-12.48-17.98-18.71c-4.31-4.49-8.62-8.97-12.93-13.46
			c-2.04-2.13-4.06-4.28-6.13-6.38c-0.09-0.09-0.18-0.18-0.26-0.27c-2.99-3.11-8.68-3.23-11.65,0
			C124.47,112.88,124.35,117.86,127.54,121.18L127.54,121.18z"/>
	</g>
</g>
</svg>
